<svg width="70" height="70" viewBox="0 0 70 70" fill="none" xmlns="http://www.w3.org/2000/svg">
<g id="260804">
<g id="TOP">
<g id="FAQ">
<g id="Frame 627787">
<g id="Frame 627785">
<g id="Frame 627782">
<mask id="path-3-inside-1_0_1" fill="white">
<path d="M0 0H960V102H0V0Z"/>
</mask>
<path d="M960 102V101H0V102V103H960V102Z" fill="#4D4D4D" mask="url(#path-3-inside-1_0_1)"/>
<g id="_&#227;&#131;&#172;&#227;&#130;&#164;&#227;&#131;&#164;&#227;&#131;&#188;_3" clip-path="url(#clip0_0_1)">
<path id="Vector" d="M34.9961 1C53.7791 1 69 16.2209 69 35.0039C69 44.9646 64.7151 53.9208 57.8916 60.1406L58.4092 60.708L57.6172 61.2129L60.123 68.1201L52.3926 64.6738L51.9355 64.4707L51.499 64.7139C46.6096 67.4378 40.9888 68.9922 34.9961 68.9922C16.2209 68.9922 1 53.7713 1 34.9961C1.00001 16.2208 16.2133 1.00001 34.9961 1Z" fill="white" stroke="#EE88BB" stroke-width="2"/>
<path id="A" d="M23.1771 45.635L30.7611 21.923H36.3611L43.9451 45.635H38.9531L35.5931 33.283C35.2304 32.0457 34.8784 30.7657 34.5371 29.443C34.2171 28.099 33.8757 26.7977 33.5131 25.539H33.3851C33.0864 26.819 32.7557 28.1203 32.3931 29.443C32.0517 30.7657 31.7104 32.0457 31.3691 33.283L27.9771 45.635H23.1771ZM27.8811 39.555V35.875H39.1451V39.555H27.8811Z" fill="#EE88BB"/>
</g>
</g>
</g>
</g>
</g>
</g>
</g>
<defs>
<clipPath id="clip0_0_1">
<rect width="70" height="70" fill="white"/>
</clipPath>
</defs>
</svg>
