<svg width="514" height="323" viewBox="0 0 514 323" fill="none" xmlns="http://www.w3.org/2000/svg">
<g clip-path="url(#clip0_18_1392)">
<path fill-rule="evenodd" clip-rule="evenodd" d="M470.407 65.9867L457.801 64.9061H430.066L384.682 67.4275L381.08 68.1478L372.076 68.508L332.815 72.4701L331.014 73.1905L321.649 74.2711L314.085 74.6312L308.682 75.3516L307.242 76.072H303.64L301.479 76.7924H297.156L294.995 77.5128L289.592 77.8729L285.63 78.9535L265.099 81.1147L259.697 82.5554L254.654 82.9156L253.213 83.636H248.171L230.521 87.2379L213.232 89.399L206.028 91.2H203.507L199.545 92.2805L191.261 93.3611L183.336 95.5222L173.611 96.6028L164.607 98.4038L163.166 99.1241H161.365L159.924 99.8445L152 100.565L139.753 103.446H137.232L127.867 105.247L121.744 107.048L115.981 107.408L100.493 111.371L98.6919 111.01L73.4786 117.134L69.1564 117.494L58.7109 120.375L54.7488 120.736L42.8625 123.617L40.7014 124.698L37.8199 125.058L36.7393 125.778H35.2986L25.2132 129.02L14.0474 133.342L9.00472 134.423L8.64453 135.863L9.36491 136.584H10.4455L12.6066 135.503H14.7678L15.4881 134.783L19.8104 134.063L35.2986 129.02L47.1848 126.499L58.7109 123.257L71.6777 120.736L72.3981 120.015L78.8815 119.295L90.7677 116.773L93.6492 115.693L106.616 113.532L122.464 109.57H125.346L131.829 107.769L152.72 104.527L161.005 102.366L166.768 102.006L176.133 100.205L180.095 98.7639L193.782 96.963L200.626 95.162L217.554 92.6407L224.398 90.8398L235.564 89.7592L239.166 88.6786L249.611 87.2379L250.692 86.5175L262.578 85.4369L275.545 83.2758L278.787 82.1952L293.554 80.7545L300.758 79.3137L309.763 78.5933L329.573 75.7118L336.417 75.3516L358.389 72.4701H362.711L377.839 70.6692H383.242L387.924 69.5886L391.166 69.9488L394.407 69.2284L412.057 68.508L423.583 67.4275L456 66.7071L465.725 67.0673L470.047 66.7071L470.407 65.9867Z" fill="#F7B8CB"/>
<path fill-rule="evenodd" clip-rule="evenodd" d="M480.493 162.157L474.73 161.437H455.279L450.597 162.157H436.55L404.853 164.318L401.611 165.039L370.275 167.56L367.753 168.28L328.853 172.243L320.569 173.683L300.038 175.844L285.99 178.366H282.389L277.346 179.446L268.341 180.167L256.095 182.688L254.294 182.328L252.853 183.048L242.047 184.129L238.445 185.209L227.28 186.65L221.877 188.091L209.63 189.532L182.616 194.214L165.687 197.816L157.403 198.897L156.322 199.617L154.161 199.257L143.355 201.058L116.341 206.821H113.46L110.938 207.901H108.417L104.815 208.982L97.2512 210.062L94.3696 211.143L88.6066 211.863L87.526 212.584L79.2417 213.664L55.109 219.788L33.4976 223.75L15.8483 229.513L11.5261 230.233L6.8436 232.394L0.720379 234.195L0 235.636L0.720379 236.356H1.80095L2.52133 235.636L7.56398 234.555L9.36493 233.475L12.2464 233.115L16.5687 231.314L20.5308 230.953L24.1327 229.513L39.6208 225.551L55.8294 222.669L57.9905 221.589L62.3128 221.228L94.3696 214.025L108.057 211.863L108.777 211.143L157.763 202.498L161.005 201.418L168.929 200.698L175.412 198.897H178.294L179.735 198.176H181.896L185.858 197.096L190.9 196.735L198.104 194.935L210.351 193.134L215.393 191.693L223.678 190.972L237.725 188.091H240.607L251.772 186.29L255.374 185.209L266.54 184.129L280.227 181.968L282.028 181.247L287.071 180.887L291.033 179.807L299.317 179.086L304.36 178.006H307.962L314.085 176.565L327.052 175.484L331.014 174.404H333.896L342.18 172.963L349.024 172.603L357.308 171.162L380.36 169.001L383.602 168.28H387.924L394.407 167.2L432.948 163.958L448.796 163.598L456.36 162.878H471.488L480.493 162.157Z" fill="#FDD5A3"/>
<path fill-rule="evenodd" clip-rule="evenodd" d="M513.27 262.65L503.545 261.57L484.815 260.849L441.592 261.57L434.749 262.29H426.104L416.019 263.371L414.578 263.01L410.256 263.731H404.853L402.332 264.451L399.81 264.091L397.649 264.811L394.408 264.451L383.962 265.172L345.782 269.134L337.138 269.494L322.37 271.655L318.047 271.295L305.441 273.456L284.55 275.257L280.588 276.337L273.744 276.698L266.54 278.138H261.858L256.815 279.219L251.052 279.579L247.811 280.66H243.488L234.484 282.461L219.356 283.901L217.194 284.622L200.266 286.783L198.465 287.503L184.777 288.944L182.976 289.664H179.735L178.294 290.385H175.412L172.171 291.465L165.327 291.826L160.284 293.266H155.602L143.356 295.788L133.991 296.508L124.266 298.669L116.341 299.39L110.939 300.83L105.536 301.19L101.934 302.271L73.4788 306.593L66.275 308.394L51.5072 310.555L45.0238 312.356H43.2229L39.2608 313.797L21.9717 316.318L16.2087 317.759L13.3272 319.2L7.56413 320.281L6.84375 321.001V322.081L8.28451 322.442L21.6115 319.2L34.2182 317.399L36.0191 316.679L41.4219 316.318L46.8248 314.878L61.2324 312.717L64.8343 311.636H67.7158L85.7252 308.034H88.2466L91.8485 306.953H94.73L105.175 304.792L124.266 302.271L128.228 301.19L141.194 299.75L146.237 298.309L154.161 297.589L155.242 296.868L160.284 296.508L167.128 295.067L182.616 293.626L185.858 292.546L195.943 290.745H200.626L201.706 290.025L211.792 289.304L220.076 287.863L222.957 286.783L224.398 287.143L230.882 285.702H235.204L244.209 283.901L257.175 282.821L266.18 281.38L267.261 280.66H271.583L274.825 279.939L282.029 279.579L284.19 278.859L294.635 278.138L301.839 276.698L323.45 274.536L324.891 273.816L337.138 273.096L341.82 272.015L356.948 270.935L359.109 270.214L376.038 269.134L377.839 268.413L388.284 268.053L391.886 267.333H396.569L409.896 265.892H416.379L419.981 265.172L447.716 263.731H458.161L462.844 263.01L464.284 263.371L513.27 262.65Z" fill="#91D2E6"/>
<path d="M402.371 11.5982L398.366 7.19304V4.52404L401.143 3.96935L405.627 8.86072L405.08 11.5982H402.371ZM318.641 21.5574L319.2 19.3206L314.445 14.1699L311.33 13.6512L310.786 16.9074L316.397 22.1193L318.638 21.561L318.641 21.5574ZM361.983 50.4302L363.82 50.8912L365.279 50.405L369.129 46.1691L369.633 44.1557L368.052 42.5745H366.766L364.353 44.6419L364.151 44.5735V37.9532L365.286 31.5238L363.73 29.9678H362.051L360.96 31.0592L360.2 35.2446L359.825 46.6446L360.639 49.0903L361.983 50.4338V50.4302ZM113.38 168.828L111.302 181.651L111.673 189.1L110.517 190.256H108.838L107.016 188.433L106.609 185.577L106.623 185.48L108.791 169.228L112.436 150.642L113.884 149.194H115.725L119.565 146.053L123.033 144.512H124.521L126.804 146.338L126.059 162.752L124.975 164.376L122.259 163.987L115.206 168.219L113.384 168.828H113.38ZM115.92 160.717H114.987L114.54 161.606V163.079L114.846 163.18L121.466 159.87L121.982 157.288L121.477 157.162L117.133 159.499L115.916 160.717H115.92ZM122.464 149.756L121.87 149.608L118.236 151.921L116.294 153.862L116.074 155.188L116.236 155.242L118.178 153.949L122 152.558L122.468 151.856V149.756H122.464ZM408.375 8.22319L409.423 8.74906L412.417 8.2484V5.52537L406.499 0.00366211L404.356 0.540344L403.729 1.7938L404.197 3.67039L408.372 8.22679L408.375 8.22319ZM33.166 66.9557L47.5051 59.0711L55.7283 55.4945L73.3055 49.7566L76.7957 49.0579H82.4255L83.9275 47.5559V46.2376L82.0653 44.3754H77.0839L72.2934 45.103L66.8149 46.5582L53.7904 51.2586L46.1868 54.5147L31.0085 62.4641L25.5408 66.1056L24.1396 67.4888V69.5274L25.6416 71.0294H27.6155L33.1696 66.9557H33.166ZM108.345 64.546L116.795 56.4634L123.404 51.9394H123.854L124.622 53.2181V57.9978L125.764 59.1396H127.889L128.944 57.5583V53.2613L128.155 50.8984L125.882 47.491L123.44 45.456H121.441L120.195 46.7022L120.62 47.9773L120.422 48.5716L116.334 50.9561L112.613 54.3202L113.391 52.2419L119.219 41.6812V39.7578L118.077 38.616H116.038L115.03 39.6245L105.615 57.7312L104.022 61.6969L105.445 64.546H108.341H108.345ZM119.95 90.2275L120.281 81.266L120.008 81.176L115.693 83.4992L114.522 84.6698L112.631 84.9832L112.019 88.3581L112.393 93.9987L111.23 95.1621H109.551L107.689 93.2999L107.704 88.1817L111.349 69.5959L112.797 68.1479H113.899L117.367 65.0251L119.72 63.8472L122.525 63.4474L123.93 63.9157L125.32 65.306L125.724 70.9466L125.324 71.3464L123.883 94.7587L122.76 95.8825H120.634L118.859 93.2207V91.6827L119.946 90.2311L119.95 90.2275ZM121.268 68.3568L120.436 68.1911L117.173 70.147L115.21 72.4378L115.012 73.4319L115.174 73.4859L118.617 71.422L120.768 71.1159L121.268 68.3604V68.3568ZM120.379 75.4165L114.731 78.5934H114.007L113.625 79.9297L113.748 79.9693L119.395 76.7925H120.4L120.588 75.485L120.379 75.4165ZM403.473 139.826L402.331 140.967V142.722L406.203 145.43L410.699 149.551H412.719L413.922 148.348L413.436 145.913L405.829 139.829H403.477L403.473 139.826ZM188.465 82.9157L189.82 80.2035V77.2931L189.099 76.2126V75.2869L189.434 74.9519L191.97 46.7022L192.701 44.8689V42.1818L191.12 41.1265H189.459L188.019 43.0463V46.4717L186.589 55.4188L185.861 66.2605L184.784 73.4355L184.777 77.5669L184.417 77.9271V80.6393L186.232 82.9085H188.465V82.9157ZM196.033 56.6218H197.683L198.824 55.48V53.8016L195.882 50.8588H193.191L192.633 53.6467L196.033 56.6218ZM137.272 86.4996L142.761 86.8922L149.41 83.9386L158.476 78.8672L158.562 78.8167L159.564 77.8154V75.6903L157.982 74.6349H155.756L148.769 79.0508L143.085 81.8927L141.129 82.5447L138.792 82.2529L138.334 81.3381L138.651 77.5128L150.566 67.4059V65.695L149.424 64.5532H147.155L145.473 65.3961L141.212 69.3041L140.647 69.4446L140.52 68.9367L141.698 66.1885L140.002 64.492L137.448 65.0035L135.499 69.6787L134.015 77.0194L134.001 80.8806L135.172 84.3961L137.282 86.5068L137.272 86.4996ZM256.876 224.11L256.044 224.942L256.537 227.896L257.831 228.328L261.155 232.394H263.889L264.436 229.653L259.289 224.11H256.876ZM179.313 67.7877L180.397 66.7036L181.496 61.2107L183.696 57.5439V55.9663L182.068 54.3382L179.572 55.336L177.289 59.9032L176.132 63.3502V66.6459L177.274 67.7877H179.313ZM138.961 58.3075L141.108 59.1648L146.096 58.3976L151.96 55.4656L156.527 52.0546L157.096 50.9164L156.563 49.3172L155.094 48.3375H153.559L148.016 52.404L143.82 54.5039L142.602 54.8101L140.816 54.5111L140.47 54.1654V50.4482L150.555 40.7231V39.0374L149.414 37.8956H147.033L142.455 42.1206L142.325 42.0774L142.671 38.616L140.881 37.4237L138.781 38.4755L136.141 47.9017L136.519 55.4692L138.954 58.3111L138.961 58.3075ZM306.507 33.1231L315.068 29.197L325.813 25.6131L332.545 23.841H334.493L336.413 22.4002V21.0207L334.911 19.5187H332.368L323.281 21.6979L315.655 24.2372L302.624 30.0255L298.593 32.8313V35.0537L301.129 36.5737L306.507 33.1195V33.1231ZM55.8291 77.7145V78.2368L57.2699 79.3174V81.5362L49.4069 86.0277L46.0176 89.0425H44.0041L42.5489 87.5873L41.4179 80.7942L41.8214 74.3648L44.6849 73.9542L47.0981 71.5409L50.9161 69.2501L55.3789 68.8431L57.1978 70.662L57.6481 72.463L56.8665 75.9856L55.8291 77.7145ZM52.8756 73.4571L49.7599 74.8726L45.7402 78.8924V82.3862L46.1868 83.2759H46.1905L48.773 81.0175L52.8828 73.4823L52.8756 73.4571ZM248.34 47.2569L251.351 45.7513L251.372 45.8162L250.692 47.862V52.5553L252.435 54.7381L256.094 55.7358V56.4273L253.973 59.9644L253.566 61.9959L253.966 65.6014L256.051 67.6869L258.119 68.5153H262.668L265.636 67.7733L272.724 64.4308L273.744 63.4114V61.2863L272.163 60.2309H270.297L267.307 62.1003L261.375 64.193H258.475L257.895 63.8076V62.547L259.106 59.8239L262.326 59.4673L262.96 58.2031L262.621 55.4909L267.26 51.5648V49.8503L266.119 48.7085H263.777L259.455 51.9502H258.021L254.711 50.7472L255.003 48.1358L256.35 43.7631L257.089 43.2696L261.486 42.5348L262.581 41.4399V39.7614L261.476 38.6556L258.799 38.3206L258.13 36.3072L256.048 35.2662L254.427 36.3468L253.321 39.3003L252.446 40.1756L246.683 42.6969L245.296 44.0836V45.7621L246.798 47.2641H248.347L248.34 47.2569ZM292.412 75.7119L293.432 74.6926L296.353 68.4901L304.979 54.1149L311.488 41.1013L313.386 36.1703L312.875 33.1051L309.586 33.6526L307.659 39.0518L302.645 49.0759L289.279 71.8363L288.81 73.7092L290.312 75.7119H292.412ZM128.868 165.9L132.308 163.991L134.822 163.573L136.645 164.484L137.592 165.907L137.581 175.978L136.807 180.242L133.165 182.67L129.862 183.038L126.585 184.496H124.633L123.192 182.577L123.199 180.426L125.076 168.039L127.157 167.621L128.876 165.903L128.868 165.9ZM128.793 172.344L133.216 170.683L132.996 168.489L131.462 168.929L128.641 171.436L128.793 172.34V172.344ZM128.166 177.646L127.867 177.944V178.928L128.198 179.039L132.139 177.397L132.956 176.579L133.169 175.301L132.6 175.16L131.12 175.751L128.847 177.646H128.162H128.166ZM299.739 108.849L298.597 109.991V111.67L304.061 117.134H305.739L306.881 115.992V113.953L301.777 108.849H299.739ZM392.826 26.3659L394.407 25.3106V23.5456L392.866 22.0004L387.564 22.7064V18.0528L385.982 16.9974H384.747L383.245 18.4994V23.9022L382.849 24.2984L376.153 26.7657L372.374 28.6495L370.999 30.0255V32.4243L372.501 33.9263H373.722L380.327 29.8886L381.855 29.2763L382.478 29.4311L382.168 33.4545L380.028 42.7221L376.102 53.4342L372.079 60.7532V62.3164L373.581 63.8184H375.62L376.643 62.7955L382.46 50.07L385.737 38.8069L387.16 27.8355L388.252 27.0179L390.55 26.3623H392.83L392.826 26.3659ZM375.378 214.745L374.265 215.858L373.891 219.611L369.983 229.199L355.147 255.98V257.463L356.245 259.113L359.228 258.616L364.061 248.952L368.726 241.417L374.157 230.925L378.559 219.197V215.8L376.978 214.745H375.382H375.378ZM357.135 220.386L355.867 221.653V223.869L357.016 227.312L359.444 230.954H361.716L362.829 228.728L360.83 225.929L359.829 223.26V221.463L357.135 220.386ZM57.522 107.956L64.0198 111.417L65.9973 110.924L66.9734 109.458L67.3444 104.988L69.8585 92.0609L70.9499 77.5993L73.8278 59.2584L73.835 54.4643L71.8035 52.9407L70.0818 53.5134L69.5127 54.6516V59.0819L67.0022 73.7885L65.5614 91.0524L64.8699 93.1306L63.0581 105.024L62.5863 105.964H62.136L59.1465 104.304L57.1294 102.287L54.9719 102.827L54.3307 104.109L54.8494 105.662L57.522 107.952V107.956ZM328.071 44.0152H326.393L325.251 45.157V46.8355L326.177 47.7612L325.798 48.5176L317.813 52.35L317.752 52.0979L319.708 49.4901L322.769 43.7667L322.268 41.267L320.075 40.7195L318.584 41.7136L313.12 51.5504L307.965 58.5489V60.8865L309.467 62.3885H311.787L324.156 54.0213L330.077 51.5828H330.366L338.592 59.4529L340.977 59.9284L342.18 58.7254V57.0181L334.025 49.9764L328.071 44.0224V44.0152ZM325.251 113.172L317.554 114.627L295.157 121.125L274.943 128.343L271.158 130.23L269.782 131.606V133.645L271.284 135.147H273.203L279.442 131.844L300.257 124.305L321.047 118.571L327.243 118.207L329.213 117.22V114.612L327.293 113.172H325.251ZM462.8 201.058H460.653L459.544 202.726L460.03 204.671L463.985 208.625H466.024L467.245 207.404L466.74 205.391L462.804 201.058H462.8ZM470.278 199.552L469.525 198.047L468.019 197.042L465.851 197.586L465.303 199.779L468.826 204.476L470.256 205.431L472.694 204.944L473.346 203.64L472.838 202.117L470.281 199.559L470.278 199.552ZM318.897 250.08L316.156 250.764H315.021L314.442 250.379V249.471L315.41 247.213L315.821 246.802H317.683L319.174 244.814L318.825 243.074L320.615 241.284L323.252 240.153L324.278 238.103L323.111 236.353H320.374L317.604 237.938L316.012 239.53L311.852 238.64L311.571 236.4L312.198 233.896L313.325 233.053L317.464 231.926L318.559 229.733L316.898 228.072H314.33L314.031 226.285L312.875 225.129L310.285 225.648L308.801 230.093L303.449 232.945L302.426 234.991L304.075 237.192L307.364 236.205L307.22 236.637L307.62 240.65L308.995 242.026L312.633 243.348V243.74L310.458 247.728L310.854 252.889L312.226 254.261L314.294 255.09H317.417L322.557 253.62L327.675 251.268L328.197 248.664L326.061 247.061L318.886 250.083L318.897 250.08ZM487.016 237.026L485.809 241.449L483.385 243.47L481.317 244.299L476.865 243.895L474.337 240.524L474.747 237.232L475.598 235.535L479.127 232.787L482.805 232.38L485.74 234.058L487.016 237.034V237.026ZM479.902 239.958L482.045 238.427L482.549 236.911L482.355 236.717H481.083L478.994 238.211L478.742 239.713L478.99 239.962H479.902V239.958ZM417.481 41.7244L414.855 43.302L415.385 45.9458L417.034 46.7707L423.604 53.3405L426.72 53.7872L427.905 52.6021V50.9128L420.118 43.4965L417.481 41.7244ZM408.944 219.355L409.182 218.408L408.793 213.344L407.673 212.224H405.634L404.471 213.387L404.849 218.671L404.539 220.519L404.107 220.951L396.349 223.418L390.085 226.927V229.088L391.227 230.23H393.136L400.448 226.574L403.412 225.587L403.704 225.684L403.426 227.91L400.588 236.421L395.034 246.42L396.482 249.32H398.665L399.673 248.311L404.406 239.209L406.967 231.912L408.393 224.463L408.811 224.045L414.653 222.669H417.391L418.533 221.527V219.788L416.566 218.314L408.937 219.355H408.944ZM454.494 209.396L452.812 208.975L448.727 209.346L443.216 210.952L443.786 208.968L443.278 207.44L441.642 206.353L439.553 207.397L438.037 212.328L433.668 221.794V223.692L435.17 225.194H436.848L437.889 224.153L440.065 218.351L441.329 216.773L445.795 214.713L449.966 213.672H451.807L452.009 214.673L448.515 222.712L442.428 233.097L434.032 246.24V247.749L435.13 249.399L438.152 248.895L438.995 246.784L448.32 232.438L454.472 221.225L456.724 214.878V212.065L455.841 210.3L454.498 209.403L454.494 209.396ZM352.031 228.875L349.51 223.833L346.985 223.328L345.782 224.531V226.113L349.895 232.841L351.606 234.552H353.645L354.786 233.41V230.291L353.702 229.207L352.035 228.872L352.031 228.875ZM153.44 144.904L151.985 175.077L151.64 175.423L151.632 184.219L151.243 187.345L149.687 188.901L146.618 188.026L144.537 186.362L144.043 184.882L144.551 182.854L146.233 182.292L146.95 182.53L147.321 181.784L148.373 156.906L148.07 156.805L139.065 160.767L137.506 160.248L136.119 158.397L137.607 145.427L138.734 140.542L139.811 139.465H141.911L142.909 140.798L145.077 140.179L150.516 140.568L152.612 142.664L153.444 144.749L153.437 144.908L153.44 144.904ZM146.687 144.148L144.058 144.807L141.871 146.68L141.633 148.337L141.882 148.42L147.53 145.949H148.963L149.093 145.56L148.866 144.645L147.876 144.148H146.694H146.687ZM147.429 150.3L141.327 153.351L140.834 154.089V154.748L141.482 154.91L146.799 152.429H148.373L148.758 151.849V150.516L147.429 150.296V150.3ZM131.559 272.015L128.814 271.327L122.608 268.773H121.546L110.646 263.666L110.873 262.081L118.347 259.023L122.335 258.299L124.265 257.334V255.151L123.123 254.009H120.177L116.33 255.407L115.999 255.295L119.583 250.278V248.307L118.441 247.166H116.337L110.938 254.492V257.139L110.578 257.049V246.791L111.911 245.725H112.89L116.132 244.284H117.717L119.377 242.624L118.268 240.405L115.923 239.937L111.889 241.403H111.187L110.888 239.616L109.793 238.521H108.114L107.023 239.612L106.335 243.398L102.031 245.055L96.1667 248.56V250.818L98.6809 252.327L105.658 248.289L106.594 248.477L106.266 258.965L105.265 259.466L104.732 257.6L102.902 255.771L102.153 253.898L100.593 252.857L98.8033 253.455L98.2775 255.558L99.9091 258.414L102.272 260.777L92.6009 265.615L88.9593 268.428V270.304L91.9417 271.795L94.4018 269.746L104.174 264.862L104.811 265.02V265.298L89.7302 285.407L89.2799 287.662L90.3785 289.311H92.9322L106.166 271.071L106.266 271.104L106.623 286.012L108.179 287.568L110.938 287.017V276.402L110.578 276.042V268.503L111.781 268.745L118.178 271.943L126.524 275.21L132.459 276.701H137.088L138.557 275.721L139.155 273.931L136.764 272.019H131.555L131.559 272.015ZM177.552 253.732L177.944 258.033L176.806 262.207L173.831 267.412L169.588 271.655H168.269L166.767 270.153V268.114L169.436 265.445L172.934 259.499L173.6 256.505L173.312 254.766L170.823 252.9L167.762 252.594L167.495 252.86V254.488L165.964 258.674L164.091 262.02L160.767 266.086L157.964 267.689H155.674L152.771 264.786L152.36 261.905L152.76 259.902L154.651 255.745L159.517 250.879L163.724 248.967L171.237 248.592L174.8 250.177L177.562 253.728L177.552 253.732ZM162.247 254.528L161.71 254.661L158.692 257.345L157.021 260.352L156.751 262.783L157.68 262.412L160.752 258.656L162.406 255.346L162.243 254.528H162.247ZM93.8687 196.375L95.45 195.32V193.195L94.3478 192.093L91.7364 191.718L87.234 188.948L71.0723 174.584L68.8248 173.219L66.6636 174.299L68.7599 167.776L70.9391 157.986L70.9571 152.13L69.4551 150.628H67.7766L66.5988 151.806L66.9842 155.285L65.9288 160.915L63.4219 170.222L60.9222 177.012L57.7021 184.165L51.9715 194.549L47.7213 200.572L44.2995 203.612V205.315L45.8519 206.868L48.6073 206.41L51.2907 203.727L54.9683 198.594L59.6904 190.245L65.4786 177.952L66.5736 174.566L67.0922 177.156L68.7959 177.581L79.1046 187.18L87.4934 194.11L92.4028 196.375H93.8579H93.8687ZM204.796 167.639L207.029 163.198L209.623 154.348L209.997 145.708L208.254 143.528L206.831 143.053L202.275 143.431L199.152 144.472L198.587 144.332L200.308 136.069L199.206 134.416H196.634L195.579 135.997V138.277L193.497 145.563L192.669 146.392L187.428 148.139L179.958 151.867L178.92 153.423L179.925 155.937L182.378 156.427L188.692 152.713L190.198 152.112L190.536 152.223V152.616L187.745 158.199L179.835 171.14L173.968 182.508V184.111L176.367 186.031L178.852 185.037L181.823 177.238L189.712 164.329L197.157 149.443L205.275 147.415L205.636 147.534L205.311 153.383L203.197 160.425L199.325 167.114L197.852 168.587L195.777 168.241L194.073 169.379L194.556 172.286L196.418 173.683H199.019L201.108 172.43L204.793 167.639H204.796ZM71.8035 279.579L66.9122 277.832L57.9686 273.539L52.2272 270.16V266.187L53.0016 265.413L58.5882 262.967L64.2504 261.458L65.3021 259.354L64.1855 257.676L61.8839 257.215L52.8972 260.81L52.256 260.651L52.5694 254.423L53.9597 253.588L59.3122 252.057L59.8704 249.817L58.2892 248.235H56.4018L53.8805 249.316H52.6162L52.9692 244.356L51.3664 242.753L49.2088 243.294L48.6325 244.446L48.2795 251.164L47.8653 251.578L42.25 253.685L37.0236 256.491L37.5459 259.625L39.7106 260.165L47.3611 256.16H48.2471L47.9266 262.902L34.2646 269.559L29.456 272.757L30.0035 275.502L32.5825 276.017L35.3127 274.068L47.2422 268.103L47.4079 268.158L47.2386 268.831L43.7159 274.115L34.3618 286.707L28.9698 295.33L27.4246 296.875L26.9671 299.631L28.1594 300.823H30.6483L37.6864 290.079L47.8221 276.1L47.9086 276.129V286.354L48.2543 286.7L47.8977 293.482L49.3529 295.42H51.6005L52.6018 293.421L52.2308 279.266L51.8778 278.913V275.779L52.2056 275.124L68.8572 283.102L71.5874 283.894H74.8687L76.0105 282.752V281.074L74.5085 279.572H71.8143L71.8035 279.579ZM224.672 237.725L225.478 240.949V267.448L224.949 269.036L222.359 269.555L220.857 268.053H219.841L210.995 271.237L206.097 273.686L204.886 274.897H203.208L200.985 272.674V268.687L201.706 265.805L201.713 262.2L204.224 242.829L203.853 238.741L206.525 233.417L212.094 225.623L214.554 225.129L216.117 226.693V228.335L212.014 233.183L209.554 237.048L208.445 239.821L208.73 239.893L210.703 238.247L217.785 235.64H221.747L224.672 237.729V237.725ZM205.697 268.986L205.974 269.08L210.829 266.659L219.953 263.374H220.861L221.16 263.075V256.059L219.798 255.832L214.622 257.903L207.296 261.933H206.475L206.021 262.841L205.697 268.986ZM206.849 256.711L207.386 256.844L214.406 253.336L219.939 251.124H220.868L221.095 248.859L219.449 248.624L210.041 252.457L208.852 253.645H207.364L206.853 256.711H206.849ZM221.156 240.56L220.465 239.638L217.363 239.947L212.861 241.68L208.787 244.644H208.218L207.815 245.246L207.512 249.179L207.75 249.258L211.914 246.845L219.29 244.263L221.156 244.572V240.56ZM283.249 253.66L275.905 253.645L269.195 254.643L269.112 254.398L271.165 249.608L272.674 243.603L272.253 240.239L269.76 238.744L267.93 239.965L268.326 243.139L266.583 249.071L263.795 255.338L262.751 256.12L261.497 255.911V255.241L260.366 253.354L259.333 249.557L258.954 243.874L257.287 242.761L255.428 243.38L255.01 247.569L257.467 257.741L257.135 258.072L251.776 260.215L248.174 263.014V264.303L249.168 265.798L251.153 266.295L259.257 261.876L268.867 259.027L273.103 258.321L281.628 257.964L283.541 258.285L285.032 259.405H288.731L290.312 258.35V256.224L288.868 254.78L283.253 253.656L283.249 253.66ZM299.216 159.434L298.247 163.638L298.608 166.508L298.183 168.637L297.098 169.721H294.999L293.558 167.802L293.572 165.248L298.348 143.201L301.543 142.401L306.935 138.806L309.712 138.014L312.669 138.435L314.445 140.658L314.438 147.851L313.001 158.26L312.623 169.257L309.449 169.786L307.94 167.776L308.995 155.461L308.715 155.368L299.216 159.438V159.434ZM310.465 143.438L310.253 142.581L309.464 142.383L305.44 144.061L301.784 146.72L301.576 147.984L301.799 148.06L307.126 145.574L309.925 145.884L310.469 143.438H310.465ZM308.419 149.58L300.812 153.037L300.394 153.455V154.078L300.718 154.186L307.086 151.355H309.316L309.763 150.466V149.806L308.419 149.583V149.58ZM255.309 241.698L266.032 237.765L274.554 235.636H277.284L278.426 234.494V232.816L276.924 231.314H273.65L260.229 234.941L247.399 240.43L246.369 241.46V243.139L247.871 244.641H249.791L255.309 241.698ZM308.97 134.365L314.575 132.262H316.668L318.533 134.127L319.401 135.864H322.452L323.612 133.548L316.379 126.697L316.286 126.607L313.339 125.342L311.974 126.023L311.621 128.836L307.731 130.133L300.952 133.353L301.046 132.986L302.707 131.325L305.801 126.711V125.115L304.659 123.974H302.563L294.084 135.035L288.872 140.622V141.879L290.687 144.148H292.69L303.279 137.211L308.97 134.365ZM256.372 163.728L256.876 161.203L255.673 160H253.051L246.845 162.921L244.118 163.602H242.984L242.404 163.216V161.97L243.621 159.539L244.345 159.359L244.99 160.003H246.668L247.846 158.826L247.486 155.584L248.228 154.842L252.406 152.944L252.932 150.307L251.268 149.198H249.417L244.374 152.079H243.315L241.323 150.941V149.655L242.328 145.97L242.76 145.538L246.287 144.832L247.806 143.82V142.055L246.305 140.553H244.965L243.164 137.672H240.963L239.587 139.509L238.913 141.864L233.687 144.652L232.679 145.661V147.256L233.734 148.838H235.729L237.303 148.052L236.979 151.924L239.057 154.831L240.603 155.447V156.218L238.063 160.933L238.467 165.37L240.196 167.099L242.263 167.928H246.121L251.635 166.091L256.368 163.731L256.372 163.728ZM235.358 68.292L233.896 65.3709L230.589 64.546L222.561 64.9098L213.978 67.0421L213.639 66.9305L214.622 56.4273L218.037 55.1847H221.451L223.058 53.5782L222.478 51.8421L221.008 50.8624H217.432L215.386 51.5432L215.051 51.4315L215.364 44.5267L221.149 42.3583V40.0315L219.517 38.9437L216.845 39.3255L215.804 39.1166L216.499 32.1578L214.431 30.6054L212.71 31.1781L211.788 33.0222L211.438 41.0941L209.673 42.2683L208.034 42.7365L207.757 41.0617L206.237 40.0459H204.641L203.593 41.0941L200.618 49.6486V52.2311L201.76 53.3729H203.997L205.185 50.2033L207.156 48.5608L210.455 46.5834L211.002 46.7202L210.383 52.9191L203.496 56.5426V58.7182L204.638 59.86H206.676L207.865 58.6749L209.313 58.095L209.983 58.2607V62.6442L208.902 66.6063V68.4181L199.638 73.0501L199.098 75.2076L201.04 77.149H202.97L210.646 72.7619L215.573 71.0006L225.176 69.2213H229.981L231.421 69.9417H233.691L235.351 68.2812L235.358 68.292ZM382.182 134.869L377.9 133.551L378.231 130.558L376.178 128.505L373.876 129.657V131.703L373.109 132.982H368.387L365.506 133.702H363.276L363.11 133.036L365.606 126.97L365.21 122.212L363.463 120.465L362.109 120.015H359.343L355.111 121.553L353.645 123.019L354.17 125.645L356.364 126.192L358.644 124.672L361.018 124.409L361.248 126.034L357.102 135.359L351.084 138.9L347.687 142.675L346.502 145.441V148.362L348.278 150.584L351.303 151.017L353.05 150.145L354.999 148.196L359.681 140.272L360.913 139.04L366.755 137.664H371.269L371.024 138.889L367.393 147.242V150.041L370.087 151.118L371.618 149.587L373.819 143.352L376.481 138.028H377.597L379.07 139.134L383.602 138.68V136.289L382.182 134.869ZM351.545 145.949H350.824L350.464 144.868L351.545 143.788H352.265L352.625 144.868L351.545 145.949Z" fill="black"/>
</g>
<defs>
<clipPath id="clip0_18_1392">
<rect width="513.27" height="322.442" fill="white"/>
</clipPath>
</defs>
</svg>
